# xmcd
#
# Track frame offsets:
#	150
#	17181
#	35013
#	47410
#	66410
#	77374
#	92550
#	108830
#	125635
#	142785
#	161054
#	173544
#
# Disc length: 2482 seconds
#
# Revision: 1
# Processed by: cddbd v1.5.2PL0 Copyright (c) Steve Scherf et al.
# Submitted via: audiograbber 1.83.01
#
DISCID=9009b00c
DTITLE=Palmer Divide - The Bow River Sessions
DYEAR=2006
DGENRE=
TTITLE0=Long Gone Baby
TTITLE1=Every Good Reason
TTITLE2=Legend Of Baby Doe
TTITLE3=Dress Rehearsal
TTITLE4=If You Don't Let Go
TTITLE5=24 West
TTITLE6=One More Night
TTITLE7=Oklahoma Daydreams
TTITLE8=White Oak Flats
TTITLE9=Red Dirt On My Shoes
TTITLE10=Camp Creek
TTITLE11=Mile High Dreamin'
EXTD=
EXTT0=
EXTT1=
EXTT2=
EXTT3=
EXTT4=
EXTT5=
EXTT6=
EXTT7=
EXTT8=
EXTT9=
EXTT10=
EXTT11=
PLAYORDER=
